<svg xmlns="http://www.w3.org/2000/svg" viewBox="0 0 100 100" role="img" aria-label="Fighter jet">
  <path
    d="M50 4
       C53 10 55 19 55 29
       L64 38
       L65 50
       L92 75
       L92 84
       L67 78
       L64 83
       L69 90
       L69 96
       L56 90
       L54 97
       L50 88
       L46 97
       L44 90
       L31 96
       L31 90
       L36 83
       L33 78
       L8 84
       L8 75
       L35 50
       L36 38
       L45 29
       C45 19 47 10 50 4Z"
    fill="#050505"
  />
  <path
    d="M50 8
       C51.6 18 51.9 31 51 48
       L50 78
       L48.7 48
       C48.3 30 48.6 18 50 8Z"
    fill="#f7f7f7"
    opacity="0.88"
  />
  <path d="M42 42 L39 72" stroke="#f7f7f7" stroke-width="1.8" stroke-linecap="round" opacity="0.8" />
  <path d="M58 42 L61 72" stroke="#f7f7f7" stroke-width="1.8" stroke-linecap="round" opacity="0.8" />
  <path d="M47 74 L47 88" stroke="#f7f7f7" stroke-width="1.5" stroke-linecap="round" opacity="0.7" />
  <path d="M53 74 L53 88" stroke="#f7f7f7" stroke-width="1.5" stroke-linecap="round" opacity="0.7" />
</svg>
