<svg xmlns="http://www.w3.org/2000/svg" viewBox="0 0 96 96">
  <circle cx="48" cy="48" r="43" fill="#451a03" stroke="#fb923c" stroke-width="5"/>
  <path d="M10 48c10-18 23-27 38-27s28 9 38 27c-10 18-23 27-38 27S20 66 10 48z" fill="#f97316" stroke="#fed7aa" stroke-width="4"/>
  <ellipse cx="48" cy="48" rx="13" ry="26" fill="#111827"/>
  <ellipse cx="48" cy="48" rx="7" ry="18" fill="#facc15"/>
  <path d="M48 7c8 13 8 25 0 38-8-13-8-25 0-38zM48 89c-8-13-8-25 0-38 8 13 8 25 0 38z" fill="#ef4444"/>
  <path d="M18 21c13 7 23 8 35 4M78 75c-13-7-23-8-35-4" stroke="#fed7aa" stroke-width="4" stroke-linecap="round"/>
</svg>
