<svg xmlns="http://www.w3.org/2000/svg" viewBox="0 0 96 96">
  <circle cx="48" cy="48" r="43" fill="#0f172a" stroke="#38bdf8" stroke-width="5"/>
  <path d="M21 37c3-15 17-25 32-20 11 4 19 14 20 26 9 2 15 9 15 18 0 11-9 20-21 20H29C17 81 8 72 8 61c0-10 6-18 13-24z" fill="#334155" stroke="#bae6fd" stroke-width="4"/>
  <path d="M49 39 31 63h13l-4 20 24-31H50l7-13z" fill="#facc15" stroke="#fef3c7" stroke-width="3" stroke-linejoin="round"/>
  <path d="M22 15v10M12 24l7 7M78 17l-7 9" stroke="#38bdf8" stroke-width="4" stroke-linecap="round"/>
</svg>
