<svg xmlns="http://www.w3.org/2000/svg" viewBox="0 0 160 160">
  <circle cx="80" cy="80" r="76" fill="#7f1d1d" opacity="0.22"/>
  <circle cx="80" cy="80" r="54" fill="#ef4444" opacity="0.34"/>
  <circle cx="80" cy="80" r="28" fill="#fef3c7"/>
  <path d="M54 138h52c-8-18-12-36-8-54H62c4 18 0 36-8 54z" fill="#fb923c"/>
  <path d="M46 79c-22-18-8-52 20-42 10-28 54-28 64 0 28-10 42 24 20 42 18 16 7 46-18 43-8 23-45 23-52 0-27 5-52-24-34-43z" fill="#f97316" stroke="#fed7aa" stroke-width="5" stroke-linejoin="round"/>
  <path d="M64 78c-11-9-3-26 11-20 5-16 30-16 35 0 14-6 22 11 11 20 10 9 3 25-10 22-7 12-29 12-36 0-14 3-21-13-11-22z" fill="#fff7ed"/>
</svg>
